<mxfile host="app.diagrams.net" modified="2023-08-30T07:43:17.833Z" agent="Mozilla/5.0 (Macintosh; Intel Mac OS X 10.15; rv:109.0) Gecko/20100101 Firefox/116.0" version="21.7.0" etag="L2L7TmGHXauHSylU-T3m" type="github">
  <diagram name="第 1 页" id="dG8q8jWFHo3s5vQDhwdZ">
    <mxGraphModel>
      <root>
        <mxCell id="0" />
        <mxCell id="1" parent="0" />
      </root>
    </mxGraphModel>
  </diagram>
</mxfile>
